PathFileType	4	(X/Y/Z)	C:\Users\Basilio\Documents\Thesis Gigler\squatting_fais\c3dfiles\019\SJ_pre2\markers_experimental.trc
DataRate	CameraRate	NumFrames	NumMarkers	Units	OrigDataRate	OrigDataStartFrame	OrigNumFrames
200.000000	200.000000	4	59	mm	200.000000	479	1278
Frame#	Time	FHD			LBHD			RBHD			C7			T10			CLAV			LSHO			LUUPA			LMUPA			LDUPA			LLEP			LMEP			LRAD			LUL			LRFIN			RSHO			RUPA1			RMUPA			RDUPA			RLEP			RMEP			RRAD			RUL			RUFIN			LASI			RASI			USACR			LSACR			RSACR			LTHI1			LTHI2			LTHI3			LTHI4			LLFC			LTIB1			LTIB2			LTIB3			LTIB4			LLMAL			LMMAL			LHEE			LMT1			LMT2			LMT5			RTHI			RTHI2			RTHI3			RTHI4			RLFC			RTIB1			RTIB2			RTIB3			RTIB4			RLMAL			RMMAL			RHEE			RMT1			RMT2			RMT5			
		X1	Y1	Z1	X2	Y2	Z2	X3	Y3	Z3	X4	Y4	Z4	X5	Y5	Z5	X6	Y6	Z6	X7	Y7	Z7	X8	Y8	Z8	X9	Y9	Z9	X10	Y10	Z10	X11	Y11	Z11	X12	Y12	Z12	X13	Y13	Z13	X14	Y14	Z14	X15	Y15	Z15	X16	Y16	Z16	X17	Y17	Z17	X18	Y18	Z18	X19	Y19	Z19	X20	Y20	Z20	X21	Y21	Z21	X22	Y22	Z22	X23	Y23	Z23	X24	Y24	Z24	X25	Y25	Z25	X26	Y26	Z26	X27	Y27	Z27	X28	Y28	Z28	X29	Y29	Z29	X30	Y30	Z30	X31	Y31	Z31	X32	Y32	Z32	X33	Y33	Z33	X34	Y34	Z34	X35	Y35	Z35	X36	Y36	Z36	X37	Y37	Z37	X38	Y38	Z38	X39	Y39	Z39	X40	Y40	Z40	X41	Y41	Z41	X42	Y42	Z42	X43	Y43	Z43	X44	Y44	Z44	X45	Y45	Z45	X46	Y46	Z46	X47	Y47	Z47	X48	Y48	Z48	X49	Y49	Z49	X50	Y50	Z50	X51	Y51	Z51	X52	Y52	Z52	X53	Y53	Z53	X54	Y54	Z54	X55	Y55	Z55	X56	Y56	Z56	X57	Y57	Z57	X58	Y58	Z58	X59	Y59	Z59	

480	2.395	106.0564651489258	928.096618652344	-854.6040649414065	-27.17397117614747	926.7066650390627	-997.4444580078127	-31.60325241088868	922.3436279296877	-857.5657348632815	-111.6655197143555	827.2722167968752	-925.0179443359377	-362.1826477050782	699.1005859375001	-928.0273437500002	-41.54716873168946	690.0860595703126	-921.7437133789065	-51.00336837768556	766.4194335937501	-1072.018798828125	-169.677001953125	713.9987182617189	-1186.4462890625	-206.190902709961	684.7473754882814	-1168.402709960938	-226.6436157226563	702.8463134765626	-1221.00439453125	-289.7938537597657	718.2930297851564	-1276.68505859375	-331.8174133300782	773.8093261718752	-1253.160400390625	-466.8255310058595	597.6158447265626	-1131.236694335938	-464.0679016113282	560.1605224609376	-1188.85546875	-440.0628356933595	563.8729248046876	-1091.74267578125	-52.03297424316408	761.4046630859376	-780.6782836914065	-184.2780151367188	780.3330688476565	-646.6547241210939	-200.3707275390626	731.4674682617189	-637.4100952148439	-235.7454833984376	764.9987792968751	-600.2762451171876	-305.9305114746094	732.1911621093751	-565.7620239257814	-338.2542114257813	787.9019165039065	-589.3421020507814	-469.0648498535157	610.1414794921876	-731.1975708007814	-459.3507690429689	564.8800048828126	-681.6724853515626	-436.1541442871095	573.7002563476564	-776.2314453125002	-456.5110168457032	551.1317749023439	-993.2864379882815	-486.1405334472657	514.4838867187501	-900.2905273437502	-496.1252746582032	627.4258422851564	-933.0137939453127	-525.7654418945314	609.9240722656251	-958.5771484375002	-523.9471435546876	608.3437500000001	-904.236267089844	-393.3122558593751	439.1655273437501	-1165.301879882813	-315.3835449218751	470.3892211914064	-1183.836547851563	-302.5514221191407	510.1775817871095	-1161.128662109375	-264.9140930175782	438.2049560546876	-1197.565307617188	-182.2797088623047	418.8504028320314	-1200.512939453125	-151.9394226074219	285.8153381347657	-1175.623779296875	-228.2361297607422	268.8265991210938	-1219.214721679688	-193.461166381836	253.1688232421876	-1198.3193359375	-228.2520294189454	184.4545135498047	-1159.097290039063	-348.9167785644532	96.73530578613284	-1174.097412109375	-317.7013244628907	95.17423248291017	-1092.574340820313	-404.9339294433595	44.37615966796876	-1113.307250976563	-191.6812133789063	56.04395294189455	-1137.663940429688	-200.5696105957032	58.70347976684572	-1180.892456054688	-250.9413757324219	35.30671310424805	-1225.742553710938	-460.9573669433595	472.4378967285157	-718.4866943359376	-404.0476989746095	500.262176513672	-714.8092651367189	-394.7198181152345	519.2560424804689	-742.9642333984376	-337.3985595703126	472.3743286132814	-677.3638305664064	-196.0452575683594	420.9641418457032	-651.6556396484376	-180.052734375	248.9818115234376	-699.0533447265626	-277.4093322753907	202.8297119140626	-662.1410522460939	-239.8585357666016	190.2783813476563	-687.7172851562501	-252.3300933837891	148.5692138671875	-728.9361572265626	-353.3758544921876	97.76729583740237	-702.0231323242189	-314.0910339355469	93.31375122070314	-774.0835571289065	-399.8107910156251	44.23849487304688	-766.6160278320314	-198.6228790283204	53.05074310302736	-708.1989746093751	-212.8290405273438	60.86768341064455	-664.2543334960939	-267.3433837890626	41.85572052001954	-628.4957275390626	
481	2.4	105.9454727172852	928.1771240234377	-854.6171875000002	-27.45314025878907	926.7700195312502	-997.5942993164065	-31.75835609436036	922.4614257812502	-857.646667480469	-111.733154296875	827.2905883789065	-925.0635986328127	-362.3206481933594	699.0759887695314	-928.0659790039065	-41.54939270019532	690.1520996093751	-921.6618652343752	-50.89862442016603	766.5127563476564	-1072.0537109375	-169.698974609375	714.0124511718751	-1186.522705078125	-206.1742401123047	684.7967529296876	-1168.424926757813	-226.7032775878907	702.8768310546876	-1221.049560546875	-289.7607421875001	718.2327270507814	-1276.73291015625	-331.8100585937501	773.8054809570315	-1253.235107421875	-466.8342590332032	597.7075195312501	-1131.2861328125	-464.066375732422	560.2210083007814	-1188.857666015625	-438.6786499023439	563.8612060546876	-1092.932495117188	-52.10393142700197	761.5346679687501	-780.4613037109377	-184.3786010742188	780.3769531250002	-646.6865234375001	-200.3121643066407	731.4159545898439	-637.3172607421876	-235.7570343017579	765.0084228515626	-600.2781372070314	-305.8249816894532	732.1395263671876	-565.7761840820314	-338.0990905761719	787.6260375976565	-589.2122192382814	-469.320770263672	610.3211669921876	-731.2441406250001	-459.3191833496095	564.8032226562501	-681.5987548828126	-436.0178833007814	573.7299804687501	-776.1985473632815	-456.5319824218751	551.5254516601564	-994.0494384765627	-486.2743225097657	514.8576049804689	-900.446472167969	-496.1958618164064	627.4565429687501	-932.985778808594	-525.7314453125001	609.9084472656251	-958.5921020507815	-524.0291748046876	608.3316040039064	-904.2834472656252	-393.362274169922	439.1654357910157	-1165.255493164063	-315.4631347656251	470.3930053710939	-1183.790771484375	-302.6306152343751	510.1864013671876	-1161.148559570313	-264.9415893554688	438.1971435546876	-1197.509521484375	-182.3180236816407	418.8449707031251	-1200.509399414063	-151.9090270996094	285.4628906250001	-1176.050170898438	-228.2012939453126	268.7939453125001	-1219.223510742188	-193.4831542968751	253.1800842285157	-1198.316772460938	-228.345443725586	184.4118957519532	-1159.076171875	-348.8772888183594	96.73246765136722	-1174.102416992188	-317.6742553710938	95.13338470458986	-1092.575805664063	-404.961883544922	44.37897109985352	-1113.341674804688	-191.67138671875	56.04444885253908	-1137.608520507813	-200.5065917968751	58.72068023681642	-1180.887573242188	-250.9349670410157	35.27311706542969	-1225.781127929688	-461.0470275878907	472.4934997558595	-718.4587402343751	-404.0992736816407	500.2751464843751	-714.7738647460939	-394.7825622558595	519.4009399414064	-742.9378662109376	-337.3930664062501	472.3686523437501	-677.4014282226564	-196.0811157226563	420.939666748047	-651.6544189453126	-180.1961364746094	249.1638336181641	-699.0925903320314	-277.4052429199219	202.8838653564454	-661.9962158203126	-239.8528747558594	190.3742828369141	-687.7693481445314	-252.3265228271485	148.6802520751953	-728.6944580078126	-353.4203796386719	97.80451965332034	-702.0231933593751	-313.8881835937501	93.03153228759767	-773.783874511719	-399.7750854492189	44.15523529052735	-766.6424560546876	-198.5682067871094	53.06241989135744	-708.1724853515626	-212.8011016845704	60.87594223022462	-664.3081665039064	-267.3605041503907	41.8473129272461	-628.5148315429689	
482	2.405	105.8118438720703	928.2442626953127	-854.6773071289065	-27.51525878906251	926.7508544921877	-997.641296386719	-31.88911056518555	922.3809814453127	-857.7406005859377	-111.8226852416992	827.3433227539065	-925.1004638671877	-362.2724609375001	699.1134033203126	-928.0823974609377	-41.56884002685548	690.1636962890626	-921.716979980469	-50.98055267333986	766.5076904296876	-1071.9921875	-169.6767883300782	714.0486450195314	-1186.534423828125	-206.151840209961	684.8239135742189	-1168.477416992188	-226.6983642578126	702.8736572265626	-1221.056030273438	-289.8034667968751	718.3406372070314	-1276.718994140625	-331.8286132812501	773.845642089844	-1253.262451171875	-466.8255920410157	597.7064819335939	-1131.277587890625	-464.0418701171876	560.2445068359376	-1188.852172851563	-440.0195922851564	563.9577026367189	-1091.76123046875	-52.08057403564455	761.6041259765626	-780.5645141601565	-184.3470458984375	780.3543090820315	-646.6765136718751	-200.2676391601563	731.6928710937501	-637.3665771484376	-235.7489013671876	765.0065307617189	-600.2800292968751	-305.7848815917969	732.0397949218751	-565.6881103515626	-338.1451416015626	787.5892333984377	-589.1606445312501	-469.337371826172	610.2565917968751	-731.1926269531251	-459.2791442871095	564.7214965820314	-681.5963134765626	-436.0896911621095	573.7332763671876	-776.184265136719	-457.0846252441407	551.5655517578126	-994.8110961914065	-487.0308837890626	515.1655273437501	-900.5102539062502	-496.2313232421876	627.4656372070314	-933.0034790039065	-525.8548583984376	609.9797973632814	-958.5757446289065	-524.2145996093751	608.4552001953126	-904.302917480469	-393.4060058593751	439.1318969726564	-1165.239135742188	-315.5329895019532	470.3983154296876	-1183.811401367188	-302.7102661132813	510.1798706054689	-1161.124633789063	-264.9443664550782	438.1605529785157	-1197.485229492188	-182.3035278320313	418.8601074218751	-1200.443603515625	-151.8484649658203	285.5153198242188	-1175.978881835938	-228.2378845214844	268.8380432128907	-1219.177612304688	-193.554428100586	253.1489868164063	-1198.300048828125	-228.3204803466797	184.3952941894532	-1159.024536132813	-348.8170166015626	96.70274353027347	-1174.12353515625	-317.7844543457032	95.14987182617189	-1092.63720703125	-404.9715576171876	44.38533782958985	-1113.294677734375	-191.6496124267578	56.0773048400879	-1137.640380859375	-200.5024108886719	58.70947647094728	-1180.88232421875	-250.9150085449219	35.27073287963868	-1225.7763671875	-461.0064392089845	472.5017395019532	-718.4489746093751	-404.1453552246095	500.3167724609376	-714.7678833007814	-394.8165283203126	519.4874267578126	-742.9336547851564	-337.4656677246094	472.4595336914064	-677.4381103515626	-196.092514038086	421.0007324218751	-651.7786254882814	-180.1190032958985	248.9775543212891	-699.2218017578126	-277.4252624511719	202.7980651855469	-662.1398315429689	-239.8524017333985	190.3735809326172	-687.7704467773439	-252.3931732177735	148.610595703125	-728.8851318359376	-353.3426818847657	97.75295257568362	-702.0490112304689	-313.8519897460938	92.97286224365236	-773.7801513671877	-399.7093811035157	44.10766601562501	-766.6552734375001	-198.625961303711	53.05068588256837	-708.1959838867189	-212.8085021972657	60.9067726135254	-664.2836914062501	-267.3842773437501	41.88626098632813	-628.5000610351564	
483	2.41	105.6076202392578	928.3781738281252	-854.6309814453127	-27.45168685913087	926.6749267578127	-997.6536865234377	-32.03055953979493	922.4110107421877	-857.834411621094	-111.8974761962891	827.3291015625002	-925.1355590820315	-362.4895935058594	699.1151123046876	-928.1549072265627	-41.63534545898438	690.2204589843751	-921.7105712890627	-51.04170608520509	766.5907592773439	-1072.075317382813	-169.6177825927735	714.0711059570314	-1186.732299804688	-206.2323760986329	684.8840942382814	-1168.4560546875	-226.7190246582032	702.9186401367189	-1221.07373046875	-289.7727661132813	718.3003540039064	-1276.779541015625	-331.7936706542969	773.8579711914065	-1253.345947265625	-466.8132629394532	597.7551269531251	-1131.390014648438	-464.0735473632814	560.2919311523439	-1188.855224609375	-440.0184936523439	563.9505615234376	-1091.806518554688	-52.16092681884767	761.6414184570314	-780.681579589844	-184.2322387695313	780.5111083984377	-646.6337890625001	-200.2948303222657	731.5720825195314	-637.3519287109376	-235.7476654052735	764.9714965820314	-600.2474365234376	-305.7579345703126	731.9907226562501	-565.7452392578126	-338.0632934570313	787.3801879882815	-589.0663452148439	-469.3887634277345	610.2358398437501	-731.1013183593751	-459.3392333984376	564.7215576171876	-681.5357055664064	-436.2145385742189	573.7391967773439	-776.1785278320315	-457.3611145019532	552.1909179687501	-996.0230712890627	-486.957733154297	515.4569702148439	-901.0640869140627	-496.3387756347657	627.5076904296876	-932.9988403320315	-525.9603881835939	610.0331420898439	-958.5777587890627	-524.1626586914064	608.3645019531251	-904.3130493164065	-393.4487304687501	439.1834716796876	-1165.211059570313	-315.6003112792969	470.4283142089845	-1183.801635742188	-302.7263488769532	510.1886596679689	-1161.144287109375	-265.0694580078126	438.1803283691407	-1197.497680664063	-182.4693908691407	418.9066162109376	-1200.4697265625	-151.9804077148438	285.5478210449219	-1175.984497070313	-228.2514038085938	268.8437500000001	-1219.197387695313	-193.5865936279297	253.1980133056641	-1198.291748046875	-228.4046478271485	184.3630676269532	-1159.059326171875	-348.8343505859376	96.70851898193362	-1174.109619140625	-317.7835388183594	95.14767456054689	-1092.643432617188	-404.9590148925782	44.38010406494141	-1113.296875	-191.6895751953125	56.05767822265626	-1137.567626953125	-200.6263580322266	58.7215919494629	-1180.88427734375	-250.9290466308594	35.24987411499024	-1225.775146484375	-461.1108703613282	472.4927673339845	-718.4565429687501	-404.1536865234376	500.330535888672	-714.7751464843751	-394.9085998535157	519.5173339843751	-742.9367675781251	-337.4675598144532	472.4270629882814	-677.4640502929689	-196.1363372802735	421.0159912109376	-651.8026123046876	-180.1933898925782	249.2363586425782	-699.2136230468751	-277.4228820800782	202.8621673583985	-662.1666259765626	-239.9230041503907	190.5181274414063	-687.7887573242189	-252.3750457763672	148.7915344238282	-728.4332885742189	-353.4312438964844	97.80405426025393	-702.0025024414064	-313.8238220214844	92.99560546875001	-773.7680664062502	-399.764373779297	44.15255355834962	-766.6301879882814	-198.5464630126954	53.02764129638673	-708.1715087890626	-212.8002319335938	60.8532066345215	-664.3160400390626	-267.4083251953126	41.86439514160157	-628.5311279296876	
